<svg width="24" height="24" viewBox="0 0 24 24" fill="none" xmlns="http://www.w3.org/2000/svg">
<path fill-rule="evenodd" clip-rule="evenodd" d="M0 12C0 5.37258 5.37258 0 12 0C18.6274 0 24 5.37258 24 12C24 18.6274 18.6274 24 12 24C5.37258 24 0 18.6274 0 12ZM11.9827 8.81067C12.9577 8.81067 13.6154 9.23244 13.9904 9.58489L15.4559 8.152C14.5559 7.31422 13.3847 6.8 11.9827 6.8C9.95184 6.8 8.19793 7.96711 7.34405 9.66578L9.02296 10.9716C9.44413 9.71778 10.6096 8.81067 11.9827 8.81067ZM16.9675 12.1156C16.9675 11.688 16.9329 11.376 16.8579 11.0524H11.9827V12.9822H14.8443C14.7866 13.4618 14.4751 14.184 13.7827 14.6693L15.4213 15.9404C16.4021 15.0333 16.9675 13.6987 16.9675 12.1156ZM9.02873 13.0284C8.91911 12.7049 8.85565 12.3582 8.85565 12C8.85565 11.6418 8.91911 11.2951 9.02296 10.9716L7.34405 9.66578C6.99212 10.3707 6.79019 11.1622 6.79019 12C6.79019 12.8378 6.99212 13.6293 7.34405 14.3342L9.02873 13.0284ZM11.9827 17.2C13.3847 17.2 14.5616 16.7378 15.4213 15.9404L13.7827 14.6693C13.3443 14.9756 12.7558 15.1893 11.9827 15.1893C10.6096 15.1893 9.44413 14.2822 9.02873 13.0284L7.34982 14.3342C8.2037 16.0329 9.95184 17.2 11.9827 17.2Z" fill="#43403B"/>
</svg>
