<svg width="48" height="48" viewBox="0 0 48 48" fill="none" xmlns="http://www.w3.org/2000/svg">
<path d="M10.8798 17.0803C12.2238 17.0803 13.4184 17.3683 14.4638 17.9443C15.5304 18.5203 16.3624 19.3736 16.9598 20.5043C17.5784 21.635 17.8878 23.0003 17.8878 24.6003V35.0003H14.2718V25.1443C14.2718 23.5656 13.8771 22.3603 13.0878 21.5283C12.2984 20.675 11.2211 20.2483 9.85577 20.2483C8.49043 20.2483 7.40243 20.675 6.59177 21.5283C5.80243 22.3603 5.40777 23.5656 5.40777 25.1443V35.0003H1.75977V11.3203H5.40777V19.4163C6.02643 18.6696 6.8051 18.0936 7.74377 17.6883C8.70377 17.283 9.7491 17.0803 10.8798 17.0803Z" fill="#43403B"/>
<path d="M31.661 17.0803C33.005 17.0803 34.1997 17.3683 35.245 17.9443C36.3117 18.5203 37.1437 19.3736 37.741 20.5043C38.3597 21.635 38.669 23.0003 38.669 24.6003V35.0003H35.053V25.1443C35.053 23.5656 34.6583 22.3603 33.869 21.5283C33.0797 20.675 32.0023 20.2483 30.637 20.2483C29.2717 20.2483 28.1837 20.675 27.373 21.5283C26.5837 22.3603 26.189 23.5656 26.189 25.1443V35.0003H22.541V11.3203H26.189V19.4163C26.8077 18.6696 27.5863 18.0936 28.525 17.6883C29.485 17.283 30.5303 17.0803 31.661 17.0803Z" fill="#43403B"/>
<path d="M44.7943 35.2243C44.1329 35.2243 43.5783 35.0003 43.1303 34.5523C42.6823 34.1043 42.4583 33.5496 42.4583 32.8883C42.4583 32.227 42.6823 31.6723 43.1303 31.2243C43.5783 30.7763 44.1329 30.5523 44.7943 30.5523C45.4343 30.5523 45.9783 30.7763 46.4263 31.2243C46.8743 31.6723 47.0983 32.227 47.0983 32.8883C47.0983 33.5496 46.8743 34.1043 46.4263 34.5523C45.9783 35.0003 45.4343 35.2243 44.7943 35.2243Z" fill="#12B379"/>
</svg>
